<svg width="24" height="24" viewBox="0 0 24 24" fill="none" xmlns="http://www.w3.org/2000/svg">
<circle cx="12" cy="12" r="12" fill="#1969FF"/>
<path fill-rule="evenodd" clip-rule="evenodd" d="M11.3346 4.42793L7.52518 6.44022C7.29561 6.56149 7.17774 6.73395 7.16081 6.91865H7.15927V6.9409C7.15854 6.95612 7.15849 6.97142 7.15911 6.98677C7.15916 6.98796 7.15921 6.98915 7.15927 6.99033V16.9797C7.1585 16.994 7.15851 17.0117 7.15915 17.0334C7.16493 17.2319 7.28177 17.4312 7.52522 17.5598L11.3346 19.5721C11.7079 19.7693 12.276 19.7693 12.6493 19.5721L16.4587 17.5598C16.7032 17.4307 16.8278 17.2327 16.8326 17.0334H16.8327V17.0293V17.0135V6.98374V6.97352V6.91865H16.8291C16.807 6.73596 16.6835 6.55899 16.4587 6.44022L12.6493 4.42793C12.2759 4.23073 11.7079 4.23073 11.3346 4.42793ZM7.75887 17.0136L11.3346 18.8925C11.55 19.0075 11.7741 19.1196 11.992 19.1203C12.1926 19.121 12.3877 19.0253 12.5849 18.9286L12.623 18.9099L16.2331 16.9974V12.5617L12.6493 14.4548C12.276 14.652 11.7079 14.652 11.3346 14.4548L7.75887 12.5659V17.0136ZM7.75887 11.2423L11.1681 9.44137L7.75887 7.64048V11.2423ZM16.2331 7.63619V11.2465L12.8158 9.44135L16.2331 7.63619ZM12.3693 4.95821L16.1787 6.9705L16.1874 6.97521L16.1933 6.97864L16.1901 6.98051L16.1787 6.98678L12.3693 8.99906C12.1712 9.10371 11.8128 9.10371 11.6147 8.99906L7.80528 6.98678L7.79659 6.98206L7.79061 6.97864L7.79384 6.97676L7.80528 6.9705L11.6147 4.95821C11.8128 4.85356 12.1712 4.85356 12.3693 4.95821ZM12.3694 9.88369L16.1788 11.896L16.1875 11.9007L16.1934 11.9041L16.1902 11.906L16.1788 11.9123L12.3694 13.9245C12.3456 13.9371 12.3195 13.9482 12.2917 13.9577V9.85053C12.3195 9.86008 12.3456 9.87113 12.3694 9.88369ZM11.6921 9.85067C11.6644 9.86018 11.6384 9.87119 11.6148 9.88369L7.80537 11.896L7.79394 11.9022L7.79071 11.9041L7.79669 11.9075L7.80537 11.9123L11.6148 13.9245C11.6384 13.937 11.6644 13.9481 11.6921 13.9576V9.85067ZM16.796 5.17886L16.4856 5.69198L16.702 5.82257L16.7725 5.86573C16.8322 5.90272 16.8813 5.9342 16.9259 5.96424L16.9375 5.9721C17.1405 6.11041 17.2517 6.22407 17.3258 6.3728C17.4152 6.55225 17.4603 6.80696 17.4603 7.19451H18.0599L18.0598 7.16755C18.0555 6.2826 17.8397 5.85719 17.261 5.467C17.2069 5.4305 17.1489 5.39336 17.0788 5.35013L17.0381 5.32514L16.796 5.17886ZM7.51405 18.3161L7.20371 18.8292L6.96154 18.6829L6.92083 18.6579C6.85081 18.6147 6.79277 18.5775 6.73864 18.541C6.15996 18.1509 5.94414 17.7254 5.93988 16.8405L5.93982 16.8135H6.53942C6.53942 17.2011 6.58446 17.4558 6.67387 17.6352C6.74799 17.784 6.85919 17.8976 7.06223 18.0359L7.07382 18.0438C7.11838 18.0738 7.16747 18.1053 7.22722 18.1423L7.29768 18.1855L7.51405 18.3161Z" fill="white"/>
</svg>
